# xmcd CD database file
#
# Track frame offsets:
#	150
#	12771
#	40065
#	84760
#	102115
#	130289
#	170829
#	192557
#	221459
#	253000
#	277205
#	298451
#	307061
#	329819
#
# Disc length: 4534 seconds
#
# Revision: 0
# Processed by: cddbd v1.5.2PL0 Copyright (c) Steve Scherf et al.
# Submitted via: CDex 1.50
#
DISCID=dc11b40e
DTITLE=PAT METHENY - SECRET STORY - ver2
DYEAR=1992
DGENRE=Jazz
TTITLE0=Above the Treetops
TTITLE1=Facing West
TTITLE2=Finding and Believing
TTITLE3=Sunlight
TTITLE4=Antonia
TTITLE5=Truth Will Always Be
TTITLE6=Cathedral in a Suitcase
TTITLE7=Longest Summer
TTITLE8=Rain River
TTITLE9=Always and Forever
TTITLE10=See the World
TTITLE11=As a Flower Blossoms (I Am Running to You)
TTITLE12=Tell Her You Saw Me
TTITLE13=Not to Be Forgotten (Our Final Hour)
EXTD=YEAR: 1992
EXTT0=
EXTT1=
EXTT2=
EXTT3=
EXTT4=
EXTT5=
EXTT6=
EXTT7=
EXTT8=
EXTT9=
EXTT10=
EXTT11=
EXTT12=
EXTT13=
PLAYORDER=
